<svg xmlns="http://www.w3.org/2000/svg" width="16" height="16" viewBox="0 0 16 16" fill="none">
  <g clip-path="url(#clip0_27_586)">
    <path d="M15.7006 10.0005H1.20165C1.06366 10.0005 0.95166 10.1122 0.95166 10.2505C0.95166 13.145 3.30651 15.5001 6.2013 15.5001H10.701C13.5956 15.5001 15.9506 13.145 15.9506 10.2505C15.9506 10.1122 15.8389 10.0005 15.7006 10.0005ZM10.701 15.0001H6.2013C3.66622 15.0001 1.5886 13.0038 1.45811 10.5004H15.4442C15.3137 13.0038 13.2361 15.0001 10.701 15.0001Z" fill="#08090D"/>
    <path d="M13.7018 4.00225C13.7018 3.984 13.7015 3.96575 13.6998 3.93801C13.6613 3.52354 13.3763 3.18306 13.0001 3.05532L13.2831 2.77234C13.7738 2.29164 13.823 1.52269 13.3935 0.97973C12.9336 0.420776 12.1046 0.341265 11.5459 0.800991C11.5141 0.827241 11.4834 0.854985 11.4527 0.885746L11.1452 1.19773C11.0162 0.823491 10.675 0.540513 10.2545 0.501518C9.70079 0.471284 9.23207 0.896234 9.20234 1.44669C9.20134 1.46494 9.20108 1.4832 9.20108 1.50118V1.88442C9.05409 1.79916 8.88385 1.75018 8.70212 1.74991C8.68413 1.74991 8.66562 1.75041 8.63787 1.75191C8.10341 1.80165 7.6922 2.26088 7.7012 2.79332V3.13331C7.5512 3.04656 7.38022 3.00007 7.20224 2.9998C7.18425 2.9998 7.166 3.0003 7.13826 3.0018C6.60353 3.05154 6.19232 3.51077 6.20132 4.04324V7.75049C6.20132 7.88874 6.31332 8.00048 6.45131 8.00048H10.701C11.2525 8.00048 11.7009 7.552 11.7007 7.00105C11.7007 6.81906 11.6519 6.64831 11.5664 6.5011H11.9042C12.4411 6.51583 12.9004 6.09862 12.9506 5.5544C12.9614 5.3509 12.9103 5.15842 12.8139 4.99495C13.0383 4.96996 13.2461 4.8707 13.4081 4.70922C13.597 4.52072 13.7015 4.26973 13.7018 4.00225ZM13.055 4.35522C12.9606 4.44921 12.8353 4.50097 12.7016 4.50097C12.7013 4.50097 12.7011 4.50097 12.7008 4.50097H11.9509C11.8126 4.50097 11.7009 4.61298 11.7009 4.75096C11.7009 4.88895 11.8126 5.00095 11.9509 5.00095L11.9784 5.00172C12.2539 5.01645 12.4659 5.25244 12.4519 5.51793C12.4264 5.7934 12.1926 6.00665 11.9084 6.00088H10.701C10.5627 6.00088 10.451 6.11288 10.451 6.25087C10.451 6.38886 10.5627 6.50086 10.701 6.50086C10.9767 6.50086 11.201 6.7251 11.201 7.00084C11.201 7.27658 10.9767 7.50082 10.701 7.50082H6.70124V4.03899C6.69649 3.76225 6.90898 3.52554 7.1747 3.50052L7.20195 3.49976C7.47719 3.49999 7.7009 3.72399 7.70117 3.99897V4.00073C7.70117 4.13872 7.81291 4.25072 7.95089 4.25072C7.95116 4.25072 7.95116 4.25072 7.95116 4.25072C8.08914 4.25072 8.20088 4.13898 8.20115 4.00099V4.00076V2.78907C8.1964 2.51234 8.40889 2.27562 8.67461 2.2506L8.70162 2.24984C8.9771 2.25033 9.20084 2.47431 9.20111 2.74955V2.75105C9.20111 2.88903 9.31284 3.00104 9.45083 3.00104C9.4511 3.00104 9.4511 3.00104 9.4511 3.00104C9.58908 3.00104 9.70082 2.8893 9.70109 2.75131V2.75105V1.50116L9.70185 1.47341C9.71635 1.19817 9.94683 0.986205 10.2178 0.999945C10.4938 1.0257 10.706 1.26242 10.7008 1.5439V1.75138C10.7008 1.85263 10.762 1.94412 10.856 1.98262C10.9493 2.02112 11.0578 1.99911 11.1287 1.92663L11.8069 1.23842C11.8254 1.22017 11.8444 1.20291 11.8642 1.18668C12.2102 0.902211 12.7229 0.951693 13.0049 1.29368C13.2718 1.63164 13.2411 2.11361 12.9316 2.41686L12.2742 3.07431C12.2027 3.14579 12.1812 3.25328 12.2199 3.3468C12.2584 3.44005 12.3499 3.50104 12.4509 3.50104H12.6584C12.6636 3.50104 12.6674 3.50104 12.6716 3.50104C12.9446 3.50104 13.1766 3.71154 13.2011 3.97451L13.2018 4.00202C13.2015 4.1355 13.1496 4.26097 13.055 4.35522Z" fill="#08090D"/>
    <path d="M11.7743 2.07386L4.7749 9.07324L5.12842 9.42676L12.1278 2.42738L11.7743 2.07386Z" fill="#08090D"/>
    <path d="M10.7002 2.50244H10.2002V3.75236H10.7002V2.50244Z" fill="#08090D"/>
    <path d="M9.20066 3.75244H8.70068V5.25235H9.20066V3.75244Z" fill="#08090D"/>
    <path d="M7.70066 4.99951H7.20068V6.74938H7.70066V4.99951Z" fill="#08090D"/>
    <path d="M11.7006 3.50244H10.4507V4.00239H11.7006V3.50244Z" fill="#08090D"/>
    <path d="M10.4506 4.99951H8.95068V5.49947H10.4506V4.99951Z" fill="#08090D"/>
    <path d="M9.20056 6.49951H7.45068V6.99949H9.20056V6.49951Z" fill="#08090D"/>
    <path d="M5.61811 1.65668C5.61787 1.65619 5.61735 1.65569 5.61711 1.65519C5.26438 1.12697 4.54743 0.983472 4.01947 1.33621C4.00298 1.34696 3.98672 1.35844 3.96823 1.37221L3.87823 1.44071L3.79175 1.37845C3.33428 0.951743 2.61507 0.968999 2.1796 1.42096C1.96638 1.64195 1.85189 1.93292 1.85763 2.24016C1.86337 2.5474 1.98812 2.83386 2.20887 3.04685C2.27312 3.10884 2.3446 3.16333 2.42159 3.20883L2.63209 3.37333V3.50133C2.63209 4.19054 3.1928 4.75125 3.88201 4.75125C4.57122 4.75125 5.13193 4.19028 5.13166 3.5011V3.3731L5.35291 3.20036C5.83159 2.83711 5.94784 2.15892 5.61811 1.65668ZM5.0479 2.80436L4.72793 3.05435C4.66743 3.1016 4.63192 3.17435 4.63192 3.25134V3.50133C4.63192 3.9148 4.29545 4.25127 3.88198 4.25127C3.46851 4.25127 3.13204 3.9148 3.13204 3.50133V3.25134C3.13204 3.17435 3.0968 3.1016 3.03603 3.05435L2.71605 2.80436C2.70656 2.79686 2.69631 2.79012 2.68582 2.78411C2.63883 2.75737 2.59532 2.72488 2.55633 2.68711C2.43135 2.56661 2.36083 2.40463 2.35758 2.23114C2.35433 2.05764 2.41907 1.89317 2.53957 1.76816C2.66681 1.63618 2.83705 1.56967 3.00753 1.56967C3.17001 1.56967 3.33275 1.62991 3.45876 1.75166C3.46725 1.75966 3.47625 1.76743 3.486 1.7744L3.73599 1.9544C3.825 2.01865 3.94573 2.01715 4.03324 1.95065L4.29673 1.75243C4.44172 1.65542 4.61545 1.62144 4.78646 1.65519C4.95694 1.68917 5.10418 1.78744 5.20092 1.93193C5.3864 2.2154 5.32039 2.59738 5.0479 2.80436Z" fill="#08090D"/>
    <path d="M6.95115 0.75H6.45117V1.24995H6.95115V0.75Z" fill="#08090D"/>
    <path d="M8.45063 8.74951H7.95068V9.24947H8.45063V8.74951Z" fill="#08090D"/>
    <path d="M14.4507 2.00098V2.50096C14.7264 2.50096 14.9507 2.72519 14.9507 3.00091C14.9507 3.27662 14.7264 3.50089 14.4507 3.50089V4.00084C15.0021 4.00084 15.4506 3.55236 15.4506 3.00091C15.4506 2.44945 15.0021 2.00098 14.4507 2.00098Z" fill="#08090D"/>
    <path d="M1.95112 4.25195H1.45117V4.75193H1.95112V4.25195Z" fill="#08090D"/>
    <path d="M1.45161 3.25244H0.95166V3.75242H1.45161V3.25244Z" fill="#08090D"/>
    <path d="M10.7006 8.50049C10.1492 8.50049 9.70068 8.94896 9.70068 9.50042H10.2007C10.2007 9.22468 10.4249 9.00044 10.7006 9.00044C10.9763 9.00044 11.2006 9.22468 11.2006 9.50042H11.7005C11.7005 8.94896 11.2521 8.50049 10.7006 8.50049Z" fill="#08090D"/>
    <path d="M3.95145 6.25043H3.91995C3.80845 5.81971 3.41672 5.50049 2.95152 5.50049C2.48631 5.50049 2.09432 5.81971 1.98308 6.25043H1.95159C1.40014 6.25043 0.95166 6.6989 0.95166 7.25036C0.95166 7.80181 1.40014 8.25029 1.95159 8.25029H3.95145C4.5029 8.25029 4.95138 7.80181 4.95138 7.25036C4.95138 6.6989 4.5029 6.25043 3.95145 6.25043ZM3.95145 7.75057H1.95156C1.67582 7.75057 1.45158 7.52634 1.45158 7.25062C1.45158 6.97488 1.67582 6.75064 1.95156 6.75064H2.20155C2.33954 6.75064 2.45154 6.63864 2.45154 6.50065C2.45154 6.22491 2.67578 6.0007 2.95152 6.0007C3.22726 6.0007 3.4515 6.22494 3.4515 6.50065C3.4515 6.63864 3.5635 6.75064 3.70149 6.75064H3.95148C4.22722 6.75064 4.45146 6.97488 4.45146 7.25062C4.4514 7.52636 4.22716 7.75057 3.95145 7.75057Z" fill="#08090D"/>
    <path d="M3.45158 7.75049H2.45165C2.31366 7.75049 2.20166 7.86249 2.20166 8.00048V9.0004C2.20166 9.13865 2.31366 9.25039 2.45165 9.25039H3.45158C3.58957 9.25039 3.70157 9.13865 3.70157 9.0004V8.00048C3.70157 7.86249 3.58957 7.75049 3.45158 7.75049ZM3.20159 8.75041H2.70164V8.25046H3.20162V8.75041H3.20159Z" fill="#08090D"/>
    <path d="M14.2011 7.00049C13.7876 7.00049 13.4512 7.33696 13.4512 7.75043C13.4512 8.1639 13.7876 8.50038 14.2011 8.50038C14.6146 8.50038 14.9511 8.1639 14.9511 7.75043C14.9511 7.33696 14.6146 7.00049 14.2011 7.00049ZM14.2011 8.00066C14.0631 8.00066 13.9511 7.88842 13.9511 7.75067C13.9511 7.61291 14.0631 7.50068 14.2011 7.50068C14.3391 7.50068 14.4511 7.61268 14.4511 7.75067C14.4511 7.88868 14.3391 8.00066 14.2011 8.00066Z" fill="#08090D"/>
    <path d="M14.201 6.00049C13.2364 6.00049 12.4512 6.78544 12.4512 7.75036C12.4512 8.71528 13.2364 9.50023 14.201 9.50023C15.1657 9.50023 15.9509 8.71528 15.9509 7.75036C15.9509 6.78544 15.1657 6.00049 14.201 6.00049ZM14.201 9.00051C13.5118 9.00051 12.9511 8.43957 12.9511 7.75059C12.9511 7.06138 13.5118 6.50067 14.201 6.50067C14.8902 6.50067 15.451 7.06138 15.451 7.75059C15.451 8.4398 14.8902 9.00051 14.201 9.00051Z" fill="#08090D"/>
  </g>
  <defs>
    <clipPath id="clip0_27_586">
      <rect width="15" height="15" fill="white" transform="translate(0.951172 0.5)"/>
    </clipPath>
  </defs>
</svg>